<?xml version="1.0"?>
<svg version="1.1" xmlns="http://www.w3.org/2000/svg" width="400px" height="200px" style="border: dashed 2px #aaa"><path fill="#ffffff" d="M16.9,93.7l6.3,0c7.8,0,13.2,3.3,13.2,10.38c0,5.22-2.46,8.4-7.2,9.9c5.64,1.62,8.58,4.98,8.58,9.6c0,8.82-5.88,12.42-15.6,12.42l-19.08,0l0-5.1l4.5-1.8l0-28.2l-4.5-1.8l0-5.1z M16.9,110.98l3.48,0c4.38,0,6.72-1.86,6.72-5.58c0-3.12-2.22-4.5-5.1-4.5l-5.1,0l0,10.08z M16.9,128.8l4.98,0c4.2,0,6.42-1.92,6.42-5.22c0-4.38-2.52-6.3-7.92-6.3l-3.48,0l0,11.52z M46.7506,136l0-5.1l4.5-1.8l0-28.2l-4.5-1.8l0-5.1l15.48-0.3l9,19.98l9.42-19.68l14.4-0.3l0,5.4l-4.32,1.8l0,28.2l4.5,1.8l0,5.1l-17.88,0l0-5.1l4.68-1.8l0-22.56l-1.62,3.96l-6.78,14.1l-6.48,0.3l-6.9-14.22l-1.02-3.12l0,21.54l4.62,1.8l0,5.1l-17.1,0z M111.3412,122.98l0.9,5.04s2.4,1.26,5.88,1.26c3.84,0,7.26-1.68,7.26-4.86c0-7.02-20.28-3.9-20.28-18.72c0-8.28,6.54-12.72,15.24-12.72c6.78,0,13.2,2.4,13.2,2.4l-0.3,10.92l-5.52,0l-1.5-5.1s-2.7-0.9-5.28-0.9c-4.26,0-6.36,1.86-6.36,4.26c0,6.96,20.22,4.2,20.22,18.3c0,9-6.96,13.92-16.2,13.92c-6.78,0-13.38-2.28-13.38-2.28l0-11.52l6.12,0z"/><path fill="#" d=""/></svg>
